inDegrees=yes
name=ik_S40_A08_T01
DataType=double
version=3
OpenSimVersion=4.3-2021-08-27-4bc7ad9
endheader
time	pelvis_tilt	pelvis_list	pelvis_rotation	pelvis_tx	pelvis_ty	pelvis_tz	hip_flexion_r	hip_adduction_r	hip_rotation_r	knee_angle_r	knee_angle_r_beta	ankle_angle_r	subtalar_angle_r	mtp_angle_r	hip_flexion_l	hip_adduction_l	hip_rotation_l	knee_angle_l	knee_angle_l_beta	ankle_angle_l	subtalar_angle_l	mtp_angle_l	lumbar_extension	lumbar_bending	lumbar_rotation	arm_flex_r	arm_add_r	arm_rot_r	elbow_flex_r	pro_sup_r	wrist_flex_r	wrist_dev_r	arm_flex_l	arm_add_l	arm_rot_l	elbow_flex_l	pro_sup_l	wrist_flex_l	wrist_dev_l
4.659999999999989	-4.844185293941107	-1.059201662560822	28.07206997447339	0	0.9399999999999999	0	33.61701128850704	-10.90898943051555	-9.818565106037829	39.50566602140494	0.6895039452667648	0	0	0	33.61701128850704	-10.90898943051555	-9.818565106037829	39.50566602140494	0.6895039452667648	0	0	0	-3.914984857807344	-2.025463309263838	8.334582195851153	14.59295709515158	-4.253738177767366	4.912946222317322	46.72915850939442	121.5275483598334	0	0	61.31025849883751	12.91278060717552	1.355606643599734	26.62271904868127	68.39655014327379	0	0
4.679999999999988	-4.907042282998711	-1.130514465057952	27.87780356404464	0	0.9399999999999999	0	33.62162892228207	-10.90773350012348	-9.818725980714905	39.51003374487497	0.6895801764221335	0	0	0	33.62162892228207	-10.90773350012348	-9.818725980714905	39.51003374487497	0.6895801764221335	0	0	0	-4.004153670660024	-2.059772267029993	8.373659476699325	14.80200950150401	-4.188798837478176	5.04886988388162	46.7175324658058	121.5936458473554	0	0	61.02032559781778	12.85849514488053	1.913669087713675	28.17765960423552	68.16369658217495	0	0
4.699999999999988	-4.932969196327629	-1.172567994587365	27.88250997571927	0	0.9399999999999999	0	33.6249255107692	-10.90684490537586	-9.818840196386175	39.51317334642848	0.6896349728064429	0	0	0	33.6249255107692	-10.90684490537586	-9.818840196386175	39.51317334642848	0.6896349728064429	0	0	0	-4.048243409876907	-2.078603205291959	8.301929107253549	14.875217160771	-4.267969667861606	5.221902138601323	46.75232862784824	121.496253281853	0	0	60.84841900956459	12.84161596833834	1.546758724886113	29.12134213744863	68.79848150440513	0	0
4.719999999999987	-4.92494047827811	-1.172378344502946	27.91407911998559	0	0.9399999999999999	0	33.62970157225765	-10.90557288638467	-9.819004376980441	39.51777340234992	0.6897152589280479	0	0	0	33.62970157225765	-10.90557288638467	-9.819004376980441	39.51777340234992	0.6897152589280479	0	0	0	-4.041478579861607	-2.079744576973812	8.285904812565875	14.80317861882902	-4.348073285542347	5.308627898665598	46.75654971787014	121.3400923346039	0	1.616420763446103e-35	60.81555206034693	12.88490342963897	1.51665404612939	30.71795545493746	69.72888460973346	0	1.616420763446103e-35
4.739999999999987	-4.95333086757898	-1.27872543573164	28.11510824178486	0	0.9399999999999999	0	33.63559674029165	-10.90397671417524	-9.819209260345922	39.52335924380851	0.6898127502529948	0	0	0	33.63559674029165	-10.90397671417524	-9.819209260345922	39.52335924380851	0.6898127502529948	0	0	0	-4.12080197239887	-2.146164015115441	8.092956590693554	14.8287793009703	-4.335130847516929	5.33536219767415	46.88060204908757	121.2380715777521	0	0	60.94777094231769	12.89971262579249	0.3578069490504457	32.73695382817933	72.17336991740505	0	0
4.759999999999986	-4.959012044302115	-1.301807034896952	28.10710292853389	0	0.9399999999999999	0	33.64093767848394	-10.90255439017117	-9.819392915949745	39.52849455881453	0.6899023784079769	0	0	0	33.64093767848394	-10.90255439017117	-9.819392915949745	39.52849455881453	0.6899023784079769	0	0	0	-4.136749048620934	-2.16458116300599	8.118977194747361	14.80839497498115	-4.363531942343077	5.334777602959945	46.92028735019709	121.2522848761297	0	0	60.96075411184267	12.96097320566764	0.3537867878991698	34.90783314387391	73.67464037841772	0	0
4.779999999999986	-4.968873842976327	-1.344445505026097	28.42037604912927	0	0.9399999999999999	0	33.64682711406372	-10.90095816091433	-9.819597805383971	39.53406032491805	0.6899995193518792	0	0	0	33.64682711406372	-10.90095816091433	-9.819597805383971	39.53406032491805	0.6899995193518792	0	0	0	-4.172132501360418	-2.175334769452652	7.851614638651061	14.84938419657945	-4.354837023430874	5.337994611430553	46.91292635038766	121.3324047330859	0	0	60.85847728577409	12.68367923658892	-1.411819047787839	37.6807359954324	76.63045680073454	0	0
4.799999999999986	-4.975004630428383	-1.367784277202308	28.75815026739614	0	0.9399999999999999	0	33.65285843555296	-10.89936315176728	-9.819804354627745	39.53988404895765	0.6901011625110977	0	0	0	33.65285843555296	-10.89936315176728	-9.819804354627745	39.53988404895765	0.6901011625110977	0	0	0	-4.198635815153992	-2.159840482816319	7.593670237312161	14.86656238216256	-4.384267274779877	5.322773328249734	46.92452389917563	121.3062246812874	0	0	60.59329167096011	12.66406238818453	-1.549675655729617	40.60914678460016	78.50389672670381	0	0
4.819999999999985	-4.973066774893286	-1.383304287950785	29.095152704375	0	0.9399999999999999	0	33.65854511806095	-10.89786419155552	-9.819998728703769	39.54538581770181	0.6901971864903665	0	0	0	33.65854511806095	-10.89786419155552	-9.819998728703769	39.54538581770181	0.6901971864903665	0	0	0	-4.216083357269473	-2.144956874249292	7.321769856486508	14.8507897494239	-4.391958334228692	5.300142589947158	46.94316946336786	121.3424433790289	0	0	60.17912993630666	12.52971941319805	-1.553369970400029	43.79057072041051	80.32499918229954	0	0
4.839999999999985	-4.989960457993505	-1.399432668106813	29.31301543388244	0	0.9399999999999999	0	33.66412769593871	-10.89637945135439	-9.820190686724608	39.55073880581168	0.6902906137577041	0	0	0	33.66412769593871	-10.89637945135439	-9.820190686724608	39.55073880581168	0.6902906137577041	0	0	0	-4.243160910518132	-2.135535465019426	7.174810999290171	14.87285431210856	-4.415535889356415	5.28818763725663	46.96298339457933	121.4055623798764	0	0	60.12627291396214	12.52677725227803	-1.580027439097257	46.72697916137255	82.11628750069779	0	0
4.859999999999984	-5.006364558216953	-1.415258360538235	29.52903690745928	0	0.9399999999999999	0	33.67958585631953	-10.89224206090739	-9.820724903505695	39.56540916882119	0.6905466598946828	0	0	0	33.67958585631953	-10.89224206090739	-9.820724903505695	39.56540916882119	0.6905466598946828	0	0	0	-4.270082841196562	-2.125113110746327	7.025901028857652	14.91542648022208	-4.423256375600126	5.282115126853697	46.99792982652833	121.463022019987	0	0	60.16703502532077	12.58523121799738	-1.638351615612353	51.26620510045915	84.72495635330166	0	0
4.879999999999984	-5.010502466541563	-1.416837841736081	29.67615504468594	0	0.9399999999999999	0	33.68514768651146	-10.89076008624501	-9.820916515806307	39.57071480909482	0.6906392607863839	0	0	0	33.68514768651146	-10.89076008624501	-9.820916515806307	39.57071480909482	0.6906392607863839	0	0	0	-4.277572502259091	-2.111580798173725	6.88869463856797	14.90216031402593	-4.461964369882637	5.340345375388649	47.05595126936401	121.5306916821672	0	0	60.29972938748009	12.49638344607918	-1.722992468684665	54.08977478037517	86.10452308352578	0	0
4.899999999999983	-5.019744367419126	-1.412045209910981	29.8234943348698	0	0.9399999999999999	0	33.69189127363405	-10.88895845248237	-9.821149291080999	39.57712551260425	0.6907511486699927	0	0	0	33.69189127363405	-10.88895845248237	-9.821149291080999	39.57712551260425	0.6907511486699927	0	0	0	-4.285285290221296	-2.09420406117768	6.786166589316956	14.89963628306458	-4.499886841829793	5.349857568930304	47.15130002153943	121.6492799238574	0	0	60.47181809003432	12.41560595552109	-1.718954788109435	56.99587336861781	87.20535004345705	0	0
4.919999999999983	-5.031028008348002	-1.418756790068603	29.91833229764564	0	0.9399999999999999	0	33.69832321034735	-10.88724190455241	-9.821371206761071	39.58323912279457	0.6908578512969972	0	0	0	33.69832321034735	-10.88724190455241	-9.821371206761071	39.58323912279457	0.6908578512969972	0	0	0	-4.301026788130022	-2.084126738119276	6.688606850849926	14.90440371630212	-4.566201645990953	5.461129621783431	47.1799442305748	121.5487932223299	0	0	60.81092619603155	12.37419123546404	-1.776787630221751	59.57375274763902	88.22658876628057	0	0
4.939999999999983	-5.061347411107558	-1.419599515367393	29.96226481871152	0	0.9399999999999999	0	33.70177217212719	-10.88632417351743	-9.821489996102645	39.58652345382266	0.6909151736871629	0	0	0	33.70177217212719	-10.88632417351743	-9.821489996102645	39.58652345382266	0.6909151736871629	0	0	0	-4.329201683590068	-2.062716390717878	6.616897437162515	14.96478231978146	-4.670562277909465	5.641254360902208	47.27326285653085	121.5797466888503	0	0	61.32645566916465	12.44597813374343	-2.043568242623477	60.55927850579406	88.78782009929054	0	0
4.959999999999982	-5.070017082974933	-1.403155940999441	30.05179964373179	0	0.9399999999999999	0	33.70788490378746	-10.88469695451521	-9.821700622137236	39.59233771296342	0.6910166516527333	0	0	0	33.70788490378746	-10.88469695451521	-9.821700622137236	39.59233771296342	0.6910166516527333	0	0	0	-4.331189113270277	-2.032849014706561	6.507569694093703	14.9774765222228	-4.798139737752482	5.832704419848481	47.32380991530042	121.5131381970298	0	0	61.72731055939367	12.44134592946533	-2.054167935575028	64.39325212791366	90.22922695256457	0	0
